<svg id="a3114df7-b6e7-4378-8d7a-972bbe08a3fa" xmlns="http://www.w3.org/2000/svg" viewBox="0 0 949.65 482.32"><path d="M910.32,462.9c-27.64,19.92-63.46,20.92-98.08,18.47-4.84-.34-9.64-.74-14.4-1.17l-.09,0-.68-.05-2.93-.28.23.44.72,1.36-.78-1.36-.24-.41c-9-15.6-17.86-31.79-20.13-49.61-2.35-18.5,4.24-39.45,20.53-48.54a32.71,32.71,0,0,1,6.74-2.83c1-.29,2-.53,3-.74a35.21,35.21,0,0,1,41,45.78c13.81-14.16,11.23-37.12,6.47-56.31s-10.55-40.55-.84-57.79c5.39-9.59,14.88-15.55,25.52-17.94l1-.21a51.5,51.5,0,0,1,36.93,6.47c20.35,12.83,30.81,37.15,34.2,61C953.85,397.48,941.75,440.26,910.32,462.9Z" transform="translate(0 0)" style="fill:#f2f2f2"/><path d="M901.4,401.45a87.2,87.2,0,0,1-6,24.62,76.16,76.16,0,0,1-11.78,19.24c-9.93,11.95-23.07,20.93-37.34,26.92a139.8,139.8,0,0,1-34,9.14c-4.84-.34-9.64-.74-14.4-1.17l-.09,0-.68-.05-2.93-.28.23.44.72,1.36-.78-1.36-.24-.41a76.67,76.67,0,0,0,7.14-101c1-.29,2-.53,3-.74a80.51,80.51,0,0,1,7.37,12.21,79.24,79.24,0,0,1,6.84,49.3,81,81,0,0,1-20.53,40.4c.93-.06,1.86-.14,2.77-.22,17.29-1.47,34.53-5.18,50.21-12.79a90.46,90.46,0,0,0,33.88-27.8c9.49-13.09,13.68-28.84,14.39-44.85.77-17.14-1.46-34.58-5.37-51.24a214.8,214.8,0,0,0-18.07-49.23,1.55,1.55,0,0,1,.61-2,1.31,1.31,0,0,1,1-.21,1.15,1.15,0,0,1,.76.65c1,1.93,2,3.86,2.89,5.81a217.57,217.57,0,0,1,17,51.08C901.36,366.27,903.2,384.09,901.4,401.45Z" transform="translate(0 0)" style="fill:#fff"/><path d="M540.48,471.7c14.12,10.17,32.42,10.68,50.11,9.44q3.7-.27,7.35-.6h0l.34,0,1.5-.14-.11.22-.37.7.39-.69.13-.21c4.58-8,9.12-16.24,10.28-25.35,1.2-9.45-2.17-20.15-10.49-24.79a16.51,16.51,0,0,0-3.44-1.45c-.5-.15-1-.27-1.51-.38a18,18,0,0,0-20.92,23.39c-7-7.23-5.74-19-3.31-28.77s5.39-20.71.43-29.51a19.42,19.42,0,0,0-13-9.17l-.51-.1a26.2,26.2,0,0,0-18.86,3.3c-10.4,6.55-15.74,19-17.47,31.15C518.25,438.28,524.43,460.14,540.48,471.7Z" transform="translate(0 0)" style="fill:#f2f2f2"/><path d="M545,440.31a44.74,44.74,0,0,0,3.08,12.58,38.7,38.7,0,0,0,6,9.82,49.54,49.54,0,0,0,19.07,13.76,71.6,71.6,0,0,0,17.38,4.67q3.7-.27,7.35-.6h0l.34,0,1.5-.14-.11.22-.37.7.39-.69.13-.21a39.14,39.14,0,0,1-3.65-51.59c-.5-.15-1-.27-1.51-.38a41.74,41.74,0,0,0-3.77,6.24,40.46,40.46,0,0,0-3.49,25.18,41.41,41.41,0,0,0,10.48,20.64l-1.41-.11a72.48,72.48,0,0,1-25.65-6.54,46.12,46.12,0,0,1-17.3-14.19c-4.85-6.69-7-14.74-7.36-22.92A96.54,96.54,0,0,1,549,410.54a110,110,0,0,1,9.23-25.15.79.79,0,0,0-.31-1,.66.66,0,0,0-.51-.1.55.55,0,0,0-.38.33c-.51,1-1,2-1.48,3a111.32,111.32,0,0,0-8.7,26.09A89.58,89.58,0,0,0,545,440.31Z" transform="translate(0 0)" style="fill:#fff"/><path d="M164,13.22H17a17,17,0,0,0-17,17v231a17,17,0,0,0,17,17H164a17,17,0,0,0,17-17v-231A17,17,0,0,0,164,13.22Zm15,248a15,15,0,0,1-15,15H17a15,15,0,0,1-15-15v-231a15,15,0,0,1,15-15H164a15,15,0,0,1,15,15Z" transform="translate(0 0)" style="fill:#3f3d56"/><path d="M164,15.22H17a15,15,0,0,0-15,15v231a15,15,0,0,0,15,15H164a15,15,0,0,0,15-15v-231A15,15,0,0,0,164,15.22Zm-41.5,205h-65a12.5,12.5,0,0,1,0-25h65a12.5,12.5,0,1,1,0,25Zm14-65a8.39,8.39,0,0,1-1.62,5l.33.33a1,1,0,0,1-1.42,1.41l-.26-.26a8.43,8.43,0,0,1-5.53,2.05H53a8.43,8.43,0,0,1-5.53-2.05l-.26.26a1,1,0,0,1-1.71-.71,1,1,0,0,1,.29-.7l.33-.33a8.39,8.39,0,0,1-1.62-5v-76a8.36,8.36,0,0,1,1.62-5l-.33-.33a1,1,0,1,1,1.41-1.42h0l.26.26A8.44,8.44,0,0,1,53,70.72h75a8.44,8.44,0,0,1,5.53,2.06l.26-.26a1,1,0,0,1,1.43,1.4,0,0,0,0,0,0,0l-.33.33a8.36,8.36,0,0,1,1.62,5Z" transform="translate(0 0)" style="fill:#fff"/><path d="M479,13.22H332a17,17,0,0,0-17,17v231a17,17,0,0,0,17,17H479a17,17,0,0,0,17-17v-231A17,17,0,0,0,479,13.22Zm15,248a15,15,0,0,1-15,15H332a15,15,0,0,1-15-15v-231a15,15,0,0,1,15-15H479a15,15,0,0,1,15,15Z" transform="translate(0 0)" style="fill:#3f3d56"/><path d="M479,15.22H332a15,15,0,0,0-15,15v231a15,15,0,0,0,15,15H479a15,15,0,0,0,15-15v-231A15,15,0,0,0,479,15.22Zm-99,49a8.44,8.44,0,0,1,2.06-5.52l-.77-.77a1,1,0,0,1,0-1.41,1,1,0,0,1,1.42,0l.82.82a8.42,8.42,0,0,1,5-1.62h35a8.42,8.42,0,0,1,5,1.62l.82-.82a1,1,0,0,1,1.42,0,1,1,0,0,1,0,1.41l-.77.77A8.44,8.44,0,0,1,432,64.22v34a8.44,8.44,0,0,1-2.06,5.53l.77.77a1,1,0,0,1-1.42,1.41l-.82-.82a8.48,8.48,0,0,1-5,1.61h-35a8.48,8.48,0,0,1-5-1.61l-.82.82a1,1,0,0,1-1.71-.71,1,1,0,0,1,.29-.7l.77-.77A8.44,8.44,0,0,1,380,98.22Zm58,171H373a12.5,12.5,0,0,1,0-25h65a12.5,12.5,0,0,1,0,25Zm0-38H373a12.5,12.5,0,0,1,0-25h65a12.5,12.5,0,0,1,0,25Zm0-38H373a12.5,12.5,0,0,1,0-25h65a12.5,12.5,0,0,1,0,25Z" transform="translate(0 0)" style="fill:#fff"/><path d="M268,147.22H207a1,1,0,0,1,0-2h61a1,1,0,0,1,0,2Z" transform="translate(0 0)" style="fill:#3f3d56"/><path d="M255,174.65a1,1,0,0,1-1-1,1,1,0,0,1,.39-.8l31.83-24.24a3,3,0,0,0,.57-4.2,3.08,3.08,0,0,0-.57-.57l-31.83-24.25a1,1,0,0,1-.19-1.4,1,1,0,0,1,1.41-.19h0l31.82,24.25a5,5,0,0,1,.95,7,4.75,4.75,0,0,1-.95.95l-31.82,24.24A1,1,0,0,1,255,174.65Z" transform="translate(0 0)" style="fill:#3f3d56"/><path d="M582,147.22H521a1,1,0,0,1,0-2h61a1,1,0,0,1,0,2Z" transform="translate(0 0)" style="fill:#3f3d56"/><path d="M569,174.65a1,1,0,0,1-1-1,1,1,0,0,1,.39-.8l31.83-24.24a3,3,0,0,0,.57-4.2,3.08,3.08,0,0,0-.57-.57l-31.83-24.25a1,1,0,0,1-.19-1.4,1,1,0,0,1,1.41-.19h0l31.82,24.25a5,5,0,0,1,1,7,4.75,4.75,0,0,1-1,.95l-31.82,24.24A1,1,0,0,1,569,174.65Z" transform="translate(0 0)" style="fill:#3f3d56"/><path d="M432,64.22v34a8.44,8.44,0,0,1-2.06,5.53,7.92,7.92,0,0,1-1.47,1.36,8.48,8.48,0,0,1-5,1.61h-35a8.48,8.48,0,0,1-5-1.61,7.92,7.92,0,0,1-1.47-1.36A8.44,8.44,0,0,1,380,98.22v-34a8.44,8.44,0,0,1,2.06-5.52,7.92,7.92,0,0,1,1.47-1.36,8.42,8.42,0,0,1,5-1.62h35a8.42,8.42,0,0,1,5,1.62,7.92,7.92,0,0,1,1.47,1.36A8.44,8.44,0,0,1,432,64.22Z" transform="translate(0 0)" style="fill:#6c63ff"/><path d="M430.71,105.93a1,1,0,0,1-1.42,0l-.82-.82L406,82.64,382.06,58.7l-.77-.77a1,1,0,0,1,0-1.41,1,1,0,0,1,1.42,0l.82.82L406,79.81l1.42,1.42,22.52,22.52.77.77A1,1,0,0,1,430.71,105.93Z" transform="translate(0 0)" style="fill:#fff"/><path d="M430.71,57.93l-.77.77L407.42,81.23,406,82.64l-22.47,22.47-.82.82a1,1,0,0,1-1.71-.71,1,1,0,0,1,.29-.7l.77-.77,22.53-22.52L406,79.81l22.47-22.47.82-.82a1,1,0,0,1,1.42,0A1,1,0,0,1,430.71,57.93Z" transform="translate(0 0)" style="fill:#fff"/><path d="M438,134.22H373a12.5,12.5,0,0,0,0,25h65a12.5,12.5,0,0,0,0-25Zm0,23H373a10.5,10.5,0,0,1,0-21h65a10.5,10.5,0,0,1,0,21Z" transform="translate(0 0)" style="fill:#3f3d56"/><path d="M448.5,146.72a10.5,10.5,0,0,1-10.5,10.5H373a10.5,10.5,0,0,1,0-21h65A10.5,10.5,0,0,1,448.5,146.72Z" transform="translate(0 0)" style="fill:#f0f0f0"/><path d="M438,172.22H373a12.5,12.5,0,0,0,0,25h65a12.5,12.5,0,0,0,0-25Zm0,23H373a10.5,10.5,0,0,1,0-21h65a10.5,10.5,0,0,1,0,21Z" transform="translate(0 0)" style="fill:#3f3d56"/><path d="M448.5,184.72a10.5,10.5,0,0,1-10.5,10.5H373a10.5,10.5,0,0,1,0-21h65A10.5,10.5,0,0,1,448.5,184.72Z" transform="translate(0 0)" style="fill:#f0f0f0"/><path d="M438,210.22H373a12.5,12.5,0,0,0,0,25h65a12.5,12.5,0,0,0,0-25Zm0,23H373a10.5,10.5,0,0,1,0-21h65a10.5,10.5,0,0,1,0,21Z" transform="translate(0 0)" style="fill:#3f3d56"/><path d="M448.5,222.72a10.5,10.5,0,0,1-10.5,10.5H373a10.5,10.5,0,0,1,0-21h65A10.5,10.5,0,0,1,448.5,222.72Z" transform="translate(0 0)" style="fill:#f0f0f0"/><path d="M838.21,242.1l-5.65-34-2.66-16L802.42,26.46v0l-2-12.2a17,17,0,0,0-19.56-14l-145,24.07a17,17,0,0,0-14,19.55l2,12.14a.28.28,0,0,0,0,.09s0,.06,0,.09L641.59,162.9l3,17.83,15.1,91a17,17,0,0,0,19.55,14l18.85-3.13,71.35-11.84,29.52-4.9,20.53-3.41,4.77-.79A17,17,0,0,0,838.21,242.1Zm-14.32,17.58-4.39.73-21.27,3.53-30.11,5-69.58,11.55-19.66,3.26a15,15,0,0,1-17.26-12.34l-15-90.11-3.26-19.63L626,56.74l-.33-2L623.8,43.53a15,15,0,0,1,12.34-17.26l145-24.07a15,15,0,0,1,17.25,12.35l1.86,11.23.33,2,27.32,164.63,2.79,16.78,5.52,33.27A15,15,0,0,1,823.89,259.68Z" transform="translate(0 0)" style="fill:#3f3d56"/><path d="M798.41,14.55A15,15,0,0,0,781.16,2.2l-145,24.07A15,15,0,0,0,623.8,43.53l1.86,11.24,174.61-29ZM644.19,45.11a7,7,0,1,1,7-7A7,7,0,0,1,644.19,45.11ZM762.74,13.37a1,1,0,0,1,.82-1.15L783.29,9a1,1,0,0,1,.33,2l-19.73,3.27A1,1,0,0,1,762.74,13.37Zm1,5.92a1,1,0,0,1,.82-1.15l19.73-3.28a1,1,0,0,1,.33,2l-19.73,3.27A1,1,0,0,1,763.72,19.29Zm21.87,3.47h0L765.85,26a1,1,0,0,1-.33-2h0l19.73-3.28a1,1,0,0,1,.33,2Z" transform="translate(0 0)" style="fill:#f0f0f0"/><path d="M778.68,162.36c0,.93,0,1.85,0,2.78a12.49,12.49,0,0,0-12.41-5.37l-8.11,1.35a21.28,21.28,0,0,0,7-6.53c3.68-5.55,4.84-12.35,4.48-19.06a12.5,12.5,0,0,0,3.63-8.79A25.28,25.28,0,0,1,778.89,139C780.21,146.68,778.88,154.55,778.68,162.36Z" transform="translate(0 0)" style="fill:#fff"/><path d="M798.23,263.94l-30.11,5a35.21,35.21,0,0,0-2.5-3,129,129,0,0,1-9.73-12l-4-5.59a4.56,4.56,0,0,0,1.5-2.86q.71-5.92,1.61-11.83l16.48-2.73,26.49,29.8A11.33,11.33,0,0,0,798.23,263.94Z" transform="translate(0 0)" style="fill:#fff"/><path d="M823.89,259.68l-4.39.73a10.76,10.76,0,0,0-9.4-9.83l-23.27-27.19a12.5,12.5,0,0,0-13-18.24l-2.25.37-.39-.46,2.49-1.82a4.18,4.18,0,0,0,.5-.43,4.5,4.5,0,0,0,.05-6.37l-10.72-10.87,6.88-1.14a12.46,12.46,0,0,0,9.46-7.49A52.69,52.69,0,0,0,785,191.89c4.79,9,12.79,16.45,22.52,19.43a30.57,30.57,0,0,0,23.23-2.16l5.52,33.27A15,15,0,0,1,823.89,259.68Z" transform="translate(0 0)" style="fill:#fff"/><path d="M704.15,241.84a259.74,259.74,0,0,1-5.61,38.65l-19.66,3.26a15,15,0,0,1-17.26-12.34l-15-90.11a10.43,10.43,0,0,0,5.3-.52l44.3,34.95a8,8,0,0,0,6.1,1.63c-.12.95-.22,1.89-.31,2.82a12.5,12.5,0,0,0-2.68,10,12.35,12.35,0,0,0,1.91,4.86c0,1,0,1.89,0,2.69A4.48,4.48,0,0,0,704.15,241.84Z" transform="translate(0 0)" style="fill:#fff"/><path d="M800.6,27.75,626,56.74l17.42,104.93a9.14,9.14,0,0,1,1.27-.58,10.5,10.5,0,0,1,13.49,6.2,10.61,10.61,0,0,1,.38,1.25,11.38,11.38,0,0,1,.24,1.64l35.87,20.69a12.51,12.51,0,0,1,7.44-20.45h0l42.82-7.1a13.09,13.09,0,0,1-1.89-.63,24.05,24.05,0,0,1-4.83.48A24.55,24.55,0,0,1,715.14,147l-16.45,2.73A12.5,12.5,0,0,1,694.57,125h0l15.94-2.64a17.94,17.94,0,0,1,1.94-6.31,20.48,20.48,0,0,1,11.71-10.44,16.81,16.81,0,0,1,15.29,2.44,5.61,5.61,0,0,1,3.93-4.1,10.66,10.66,0,0,1,5.9.08,24.29,24.29,0,0,1,13.52,9.84l.36.56a.31.31,0,0,1,.13,0,109.73,109.73,0,0,1-2.23-11.08c-.29-3.59.63-7.45,3.24-9.92,4.89-4.63,13.19-2.43,18.3,2,7.39,6.33,11.08,16.06,12.47,25.7s.78,19.42,1.11,29.15,1.73,19.72,6.69,28.1,14.16,14.8,23.86,14.08c.39,0,.78,0,1.16-.1ZM755.29,93.67l-64.13,10.65a12.5,12.5,0,0,1-4.09-24.67L751.19,69a12.5,12.5,0,0,1,4.1,24.66Z" transform="translate(0 0)" style="fill:#fff"/><path d="M765.56,79.31A12.51,12.51,0,0,0,751.19,69L687.07,79.65a12.5,12.5,0,0,0,4.09,24.67l64.13-10.65A12.5,12.5,0,0,0,765.56,79.31ZM755,91.7l-64.12,10.64a10.5,10.5,0,0,1-3.44-20.71L751.52,71A10.5,10.5,0,0,1,755,91.7Z" transform="translate(0 0)" style="fill:#ccc"/><path d="M755,91.7l-64.12,10.64a10.5,10.5,0,0,1-3.44-20.71L751.52,71A10.5,10.5,0,0,1,755,91.7Z" transform="translate(0 0)" style="fill:#f0f0f0"/><path d="M773.1,124.68a12.5,12.5,0,0,0-9.78-10.19.31.31,0,0,0-.13,0,12.4,12.4,0,0,0-4.47-.07l-10.55,1.75-26.59,4.41-11,1.84L694.6,125h0a12.5,12.5,0,0,0,4.12,24.66L715.14,147,745,142l17.81-2.95h0a12.49,12.49,0,0,0,10.45-12.31A12,12,0,0,0,773.1,124.68Zm-3.7,8a10.42,10.42,0,0,1-6.66,4.34l-.25.05-27.7,4.6L714.53,145l-16.16,2.68A10.5,10.5,0,0,1,694.93,127l15.49-2.57,8.87-1.48,31.81-5.28,7.95-1.32a10.33,10.33,0,0,1,4.87.35c.26.08.51.17.76.27a10.52,10.52,0,0,1,6.37,7.62c0,.13.05.26.07.39A10.46,10.46,0,0,1,769.4,132.69Z" transform="translate(0 0)" style="fill:#ccc"/><path d="M714.53,145l-16.16,2.68A10.5,10.5,0,0,1,694.93,127l15.49-2.57a17.74,17.74,0,0,0,.66,4.79,13.73,13.73,0,0,0,3,5.1,24,24,0,0,0-.38,4.27A24.41,24.41,0,0,0,714.53,145Z" transform="translate(0 0)" style="fill:#f0f0f0"/><path d="M769.4,132.69c-.12-1-.27-2-.44-3a39.57,39.57,0,0,0-1.92-7.45,15.09,15.09,0,0,1,4,2.35c0,.13.05.26.07.39A10.46,10.46,0,0,1,769.4,132.69Z" transform="translate(0 0)" style="fill:#3f3d56"/><path d="M780.62,170.07a12.49,12.49,0,0,0-14.36-10.3l-8.11,1.35L745,163.31l-42.82,7.1h0a12.49,12.49,0,0,0,.49,24.72h0a12.31,12.31,0,0,0,3.63-.07l1-.17,8.41-1.4L736,190.13l8.41-1.39L759,186.31l4.44-.74,6.88-1.14a12.5,12.5,0,0,0,10.27-14.36ZM770,182.46l-8.27,1.37-3.66.61-13.79,2.29-8.53,1.41-21.47,3.57-6.27,1-2.13.35s0,0,0,0a8.34,8.34,0,0,1-1.11.11,9.56,9.56,0,0,1-2.51-.15,10.5,10.5,0,0,1,.2-20.68l64.12-10.65h0A10.5,10.5,0,0,1,770,182.46Z" transform="translate(0 0)" style="fill:#ccc"/><path d="M770,182.46l-8.27,1.37-3.42-3.47a12.45,12.45,0,0,0-8.59-5,25,25,0,0,0-2.34-1.41,26.5,26.5,0,0,0-35.84,10.92c-.17.32-.34.64-.5,1l-6.51,3.64a4.46,4.46,0,0,0-2.21,3,4,4,0,0,0-.08.59,10.5,10.5,0,0,1,.2-20.68l64.12-10.65h0A10.5,10.5,0,0,1,770,182.46Z" transform="translate(0 0)" style="fill:#f0f0f0"/><path d="M751.8,208.8l-5.95,1-20.76,3.44-7.69,1.28-7.74,1.28a12.34,12.34,0,0,0-7.6,4.39c-.17,1.72-.31,3.38-.41,5a10.48,10.48,0,0,1,8.34-7.38l36.84-6.11,6.54-1.09,6-1q.21-1,.45-2.1Zm36.35,6.65a12.5,12.5,0,0,0-14.36-10.3l-2.25.37-1.32.22h0l-10.41,1.73-8,1.33-5.95,1-20.76,3.44-7.69,1.28-7.74,1.28a12.34,12.34,0,0,0-7.6,4.39,12.5,12.5,0,0,0-2.68,10,12.51,12.51,0,0,0,14.38,10.28l4.6-.76,36.6-6.08,16.48-2.73,6.44-1.07a12.5,12.5,0,0,0,10.27-14.36Zm-10.6,12.39-7.68,1.27h0l-14.58,2.43-41.85,6.94a9.89,9.89,0,0,1-1.79.14,10.45,10.45,0,0,1-3.12-.5h0a10.5,10.5,0,0,1-7.12-8.09,1.29,1.29,0,0,1,0-.19,10.28,10.28,0,0,1,.3-4.7,10.48,10.48,0,0,1,8.34-7.38l36.84-6.11,6.54-1.09,6-1,7.28-1.21h0l6.41-1.07h0l1.05-.17a10.5,10.5,0,0,1,3.44,20.72Zm-31.7-18.05-20.76,3.44-7.69,1.28-7.74,1.28a12.34,12.34,0,0,0-7.6,4.39c-.17,1.72-.31,3.38-.41,5a10.48,10.48,0,0,1,8.34-7.38l36.84-6.11Z" transform="translate(0 0)" style="fill:#ccc"/><path d="M785.42,221.74l-12.36-14.45,1.05-.17a10.5,10.5,0,0,1,11.31,14.62Z" transform="translate(0 0)" style="fill:#f0f0f0"/><path d="M769.86,229.11l-14.58,2.43q1.22-7.89,2.77-15.71Z" transform="translate(0 0)" style="fill:#f0f0f0"/><path d="M802.42,26.42v0a1,1,0,0,1-.82,1.13h0l-1,.16L626,56.74l-1,.16a1,1,0,0,1-1.14-.73s0-.06,0-.09a.28.28,0,0,1,0-.09,1,1,0,0,1,.83-1.06h0l1-.16,174.61-29,1-.16A1,1,0,0,1,802.42,26.42Z" transform="translate(0 0)" style="fill:#3f3d56"/><circle cx="644.19" cy="38.11" r="7" style="fill:#6c63ff"/><path d="M784.44,9.77a1,1,0,0,1-.82,1.15l-19.73,3.27a1,1,0,0,1-.33-2L783.29,9A1,1,0,0,1,784.44,9.77Z" transform="translate(0 0)" style="fill:#3f3d56"/><path d="M785.42,15.69a1,1,0,0,1-.82,1.15l-19.73,3.27a1,1,0,0,1-.33-2l19.73-3.28A1,1,0,0,1,785.42,15.69Z" transform="translate(0 0)" style="fill:#3f3d56"/><path d="M786.41,21.6a1,1,0,0,1-.82,1.16h0L765.85,26a1,1,0,0,1-.33-2h0l19.73-3.28A1,1,0,0,1,786.41,21.6Z" transform="translate(0 0)" style="fill:#3f3d56"/><path d="M136.5,79.22v76a8.39,8.39,0,0,1-1.62,5,8.21,8.21,0,0,1-1.35,1.48,8.43,8.43,0,0,1-5.53,2.05H53a8.43,8.43,0,0,1-5.53-2.05,8.21,8.21,0,0,1-1.35-1.48,8.39,8.39,0,0,1-1.62-5v-76a8.36,8.36,0,0,1,1.62-5,7.89,7.89,0,0,1,1.35-1.48A8.44,8.44,0,0,1,53,70.72h75a8.44,8.44,0,0,1,5.53,2.06,7.89,7.89,0,0,1,1.35,1.48A8.36,8.36,0,0,1,136.5,79.22Z" transform="translate(0 0)" style="fill:#6c63ff"/><path d="M122.5,195.22h-65a12.5,12.5,0,0,0,0,25h65a12.5,12.5,0,1,0,0-25Zm0,23h-65a10.5,10.5,0,0,1,0-21h65a10.5,10.5,0,1,1,0,21Z" transform="translate(0 0)" style="fill:#3f3d56"/><path d="M133,207.72a10.5,10.5,0,0,1-10.5,10.5h-65a10.5,10.5,0,0,1,0-21h65A10.5,10.5,0,0,1,133,207.72Z" transform="translate(0 0)" style="fill:#f0f0f0"/><path d="M135.21,161.93a1,1,0,0,1-1.42,0l-.26-.26L46.12,74.26l-.33-.33a1,1,0,1,1,1.41-1.42h0l.26.26,44.45,44.45,43,43,.33.33A1,1,0,0,1,135.21,161.93Z" transform="translate(0 0)" style="fill:#fff"/><path d="M135.22,73.92a0,0,0,0,0,0,0l-.33.33-43,43-1.42,1.41-43,43-.26.26a1,1,0,0,1-1.71-.71,1,1,0,0,1,.29-.7l.33-.33,43-43,1.41-1.42,43-43,.26-.26a1,1,0,0,1,1.43,1.4Z" transform="translate(0 0)" style="fill:#fff"/><path d="M819.45,262.44a10,10,0,0,1-.4,2,10.8,10.8,0,0,1-20.13,1.44,10.61,10.61,0,0,1-.69-1.91,11.33,11.33,0,0,1-.3-3.26l-26.49-29.8-1.57-1.77h0l-11.81-13.28h0l-.64-.72-4-4.54-1.57-1.76-5-5.63,12-12.57,2.36,2.76,10,11.7.39.46,1.51,1.77h0l12.36,14.45,1.41,1.65,23.27,27.19a10.76,10.76,0,0,1,9.4,9.83A9.86,9.86,0,0,1,819.45,262.44Z" transform="translate(0 0)" style="fill:#a0616a"/><path d="M774.14,202.81a4.18,4.18,0,0,1-.5.43l-2.49,1.82-.93.68h0l-3.57,2.62h0l-8.3,6.07-.92.67-2.12,1.55a4.51,4.51,0,0,1-6.29-1,6.53,6.53,0,0,1-.35-.56l-1.82-3.46-1-1.86-6.15-11.7h0l-1.59-3a12.27,12.27,0,0,1-2.13-4.92,11.11,11.11,0,0,1-.21-2,12.41,12.41,0,0,1,4-9.55,12.65,12.65,0,0,1,1.19-1,12.51,12.51,0,0,1,17.4,2.75l3.42,3.47,1.72,1.74,10.72,10.87A4.5,4.5,0,0,1,774.14,202.81Z" transform="translate(0 0)" style="fill:#6c63ff"/><path d="M762.79,138.6c0,.15,0,.31,0,.46a24.54,24.54,0,0,1-19.72,23.62,24.05,24.05,0,0,1-4.83.48A24.55,24.55,0,0,1,715.14,147c-.23-.63-.44-1.27-.61-1.93a24.41,24.41,0,0,1-.86-6.44,24,24,0,0,1,.38-4.27A24.39,24.39,0,0,1,719.29,123a24.88,24.88,0,0,1,2.29-2.41,24.56,24.56,0,0,1,26.59-4.41,22.06,22.06,0,0,1,2.93,1.54A24.53,24.53,0,0,1,762.74,137C762.77,137.55,762.79,138.07,762.79,138.6Z" transform="translate(0 0)" style="fill:#a0616a"/><path d="M760.76,203.23c-.33,1.41-.65,2.82-1,4.24q-.24,1-.45,2.1c-.36,1.62-.69,3.23-1,4.86-.1.46-.19.92-.28,1.39h0q-1.56,7.83-2.77,15.71c-.12.69-.23,1.38-.32,2.07q-.9,5.89-1.61,11.83a4.48,4.48,0,0,1-4.45,4,4.87,4.87,0,0,1-.76-.06l-43.09-7.26a4.62,4.62,0,0,1-.9-.25,4.48,4.48,0,0,1-2.86-4.12c0-.8,0-1.7,0-2.69,0-1.48,0-3.16.1-5,.05-1.53.14-3.16.26-4.89.1-1.58.24-3.24.41-5,.09-.93.19-1.87.31-2.82a117.7,117.7,0,0,1,3.45-17.81c.43-1.56.91-3.12,1.44-4.65.24-.72.5-1.44.77-2.15s.46-1.21.71-1.81q1.05-2.62,2.32-5.12c.16-.33.33-.65.5-1a26.5,26.5,0,0,1,35.84-10.92,25,25,0,0,1,2.34,1.41,26.31,26.31,0,0,1,8.35,9.1c.34.61.66,1.23.94,1.87a26.48,26.48,0,0,1,1.73,16.92Z" transform="translate(0 0)" style="fill:#2f2e41"/><path d="M723.32,203.52,714,210.16l-8.13,5.8a8,8,0,0,1-9.6-.23L652,180.78a10.43,10.43,0,0,1-5.3.52,9.62,9.62,0,0,1-2.12-.57,10.48,10.48,0,0,1-3-17.83,10.84,10.84,0,0,1,3.09-1.81,10.5,10.5,0,0,1,13.49,6.2,10.61,10.61,0,0,1,.38,1.25,11.38,11.38,0,0,1,.24,1.64l35.87,20.69,7.09,4.09.66-.38,2.36-1.36,4-2.28,3.45-2,2.11,2.76,1.37,1.79Z" transform="translate(0 0)" style="fill:#a0616a"/><path d="M744.39,188.74a12.39,12.39,0,0,1-4.69,9.34h0l-.11.09-14.5,15-1.22,1.27a4.5,4.5,0,0,1-6.36.12l-.11-.11c-.12-.12-.23-.25-.34-.38l-3.06-4-8.18-10.61-2.64-3.42a4.5,4.5,0,0,1-.58-1h0a3.65,3.65,0,0,1-.18-.56,4.27,4.27,0,0,1-.15-1.51,4,4,0,0,1,.08-.59,4.46,4.46,0,0,1,2.21-3l6.51-3.64,13.2-7.38a12.51,12.51,0,0,1,15.48.15,12.75,12.75,0,0,1,2,2.1,12.39,12.39,0,0,1,2.51,6A13.53,13.53,0,0,1,744.39,188.74Z" transform="translate(0 0)" style="fill:#6c63ff"/><polygon points="681.54 469.69 669.28 469.69 666.39 422.55 681.54 422.4 681.54 469.69" style="fill:#a0616a"/><path d="M684.66,481.57H645.13v-.5a15.38,15.38,0,0,1,15.39-15.38h24.14Z" transform="translate(0 0)" style="fill:#2f2e41"/><polygon points="798.54 469.69 786.28 469.69 780.45 422.4 798.54 422.4 798.54 469.69" style="fill:#a0616a"/><path d="M801.66,481.57H762.13v-.5a15.38,15.38,0,0,1,15.39-15.38h24.14Z" transform="translate(0 0)" style="fill:#2f2e41"/><path d="M801,443a5.41,5.41,0,0,1-.58.12l-1.85.24-13.36,1.74c-.2,0-.39,0-.58,0a4.42,4.42,0,0,1-1.37-.22,4.48,4.48,0,0,1-2.88-2.8l-6.87-19.6h0l-32.2-92a2.5,2.5,0,0,0-4.36-.68l-38.11,50.82a3.45,3.45,0,0,0-.62,1.33l-12.14,54.18a4.5,4.5,0,0,1-4.19,3.51h-.32l-14.06.64h-.16a4.42,4.42,0,0,1-3.4-1.32,4.49,4.49,0,0,1-1.3-3.4l2.53-49.45a115.46,115.46,0,0,1,12.11-46,258.56,258.56,0,0,0,20.79-57.61c.17-.7.33-1.4.49-2.1a259.74,259.74,0,0,0,5.61-38.65c.09-1.2.16-2.4.23-3.6,0-.07,0-.14,0-.21l0-.56,4.09.65h0l3.12.5,6.72,1.07,30.81,4.9,2.68,3.71,4,5.59a129,129,0,0,0,9.73,12,35.21,35.21,0,0,1,2.5,3c.45.59.88,1.2,1.28,1.81,5.57,8.45,7.45,18.3,8,25.62A253.47,253.47,0,0,0,782,328.46l11,54.16,11.17,54.9A4.5,4.5,0,0,1,801,443Z" transform="translate(0 0)" style="fill:#2f2e41"/><path d="M836,205.35a25.29,25.29,0,0,1-3.43,2.7c-.6.4-1.22.77-1.85,1.11a30.57,30.57,0,0,1-23.23,2.16c-9.73-3-17.73-10.45-22.52-19.43a52.69,52.69,0,0,1-5.15-14.95,66.63,66.63,0,0,1-1.14-11.8c0-.93,0-1.85,0-2.78.2-7.81,1.53-15.68.21-23.38a25.28,25.28,0,0,0-5.62-12.24,17.25,17.25,0,0,0-2.22-2.14,15.09,15.09,0,0,0-4-2.35,14.85,14.85,0,0,0-1.89-.6l.24-.1c-.53-1.6-1-3.22-1.47-4.84-.18-.64-.36-1.29-.53-1.93,0-.1,0-.19-.07-.29a109.73,109.73,0,0,1-2.23-11.08c-.29-3.59.63-7.45,3.24-9.92,4.89-4.63,13.19-2.43,18.3,2,7.39,6.33,11.08,16.06,12.47,25.7s.78,19.42,1.11,29.15,1.73,19.72,6.69,28.1,14.16,14.8,23.86,14.08c.39,0,.78,0,1.16-.1a14.69,14.69,0,0,0,2-.37,16.85,16.85,0,0,0,7.38-4,12.21,12.21,0,0,0,3.66-10.59C845.9,186.33,843.38,198.36,836,205.35Z" transform="translate(0 0)" style="fill:#2f2e41"/><path d="M765.16,154.59a21.28,21.28,0,0,1-7,6.53,17.89,17.89,0,0,1-13.2,2.19,13.09,13.09,0,0,1-1.89-.63l-.28-.11c-.5-2.52.67-5,2-7.23s3-4.31,3.46-6.82-.47-5.58-2.9-6.4L745,142c-2-.45-4,.55-6.07.68a7,7,0,0,1-4.11-1,7.08,7.08,0,0,1-2.69-9.2l-.84-.8c-1.29,4.33-6.25,7-10.71,6.26a11.57,11.57,0,0,1-6.5-3.61,13.73,13.73,0,0,1-3-5.1,17.67,17.67,0,0,1-.54-6.84,17.94,17.94,0,0,1,1.94-6.31,20.48,20.48,0,0,1,11.71-10.44,16.81,16.81,0,0,1,15.29,2.44,5.61,5.61,0,0,1,3.93-4.1,10.66,10.66,0,0,1,5.9.08,24.29,24.29,0,0,1,13.52,9.84l.36.56c.07.11.14.21.2.32.46.72.89,1.45,1.29,2.2a40.74,40.74,0,0,1,2.36,5.27A39.57,39.57,0,0,1,769,129.7c.17,1,.32,2,.44,3s.19,1.89.24,2.84C770,142.24,768.84,149,765.16,154.59Z" transform="translate(0 0)" style="fill:#2f2e41"/><path d="M911.81,482.22h-381a1,1,0,0,1,0-2h381a1,1,0,0,1,0,2Z" transform="translate(0 0)" style="fill:#ccc"/></svg>